# AST/ASF file generated using VICON BodyLanguage
# -----------------------------------------------
:version 1.10
:name VICON
:units
  mass 1.0
  length 0.45
  angle deg
:documentation
   .ast/.asf automatically generated from VICON data using
   VICON BodyBuilder and BodyLanguage model FoxedUp or BRILLIANT.MOD
:root
   order TX TY TZ RX RY RZ
   axis XYZ
   position 0 0 0  
   orientation 0 0 0 
:bonedata
  begin
     id 1 
     name lhipjoint
     direction 0.54267 -0.795011 0.271047 
     length 2.39899 
     axis 0 0 0  XYZ
  end
  begin
     id 2 
     name lfemur
     direction 0.34202 -0.939693 0  
     length 7.49701  
     axis 0 0 20  XYZ
    dof rx ry rz
    limits (-160.0 20.0)
           (-70.0 70.0)
           (-60.0 70.0)
  end
  begin
     id 3 
     name ltibia
     direction 0.34202 -0.939693 0   
     length 8.1668   
     axis 0 0 20   XYZ
    dof rx
    limits (-10.0 170.0)
  end
  begin
     id 4 
     name lfoot
     direction 0.0736283 -0.202292 0.976554   
     length 2.13544   
     axis -90 7.62852e-016 20   XYZ
    dof rx rz
    limits (-45.0 90.0)
           (-70.0 20.0)
  end
  begin
     id 5 
     name ltoes
     direction 1.53557e-011 -4.22024e-011 1   
     length 1.07411   
     axis -90 7.62852e-016 20   XYZ
    dof rx
    limits (-90.0 20.0)
  end
  begin
     id 6 
     name rhipjoint
     direction -0.538061 -0.797813 0.272002   
     length 2.39057  
     axis 0 0 0  XYZ 
  end
  begin
     id 7 
     name rfemur
     direction -0.34202 -0.939693 0   
     length 7.50152   
     axis 0 0 -20   XYZ
    dof rx ry rz
    limits (-160.0 20.0)
           (-70.0 70.0)
           (-70.0 60.0)
  end
  begin
     id 8 
     name rtibia
     direction -0.34202 -0.939693 0   
     length 8.05793   
     axis 0 0 -20   XYZ
    dof rx
    limits (-10.0 170.0)
 end
 begin
     id 9 
     name rfoot
     direction -0.0765195 -0.210236 0.974652   
     length 2.28698  
     axis -90 -7.62852e-016 -20   XYZ
    dof rx rz
    limits (-45.0 90.0)
           (-20.0 70.0)
  end
  begin
     id 10 
     name rtoes
     direction -1.53542e-011 -4.21847e-011 1   
     length 1.14762   
     axis -90 -7.62852e-016 -20   XYZ
    dof rx
    limits (-90.0 20.0)
  end
  begin
     id 11 
     name lowerback
     direction -0.0217239 0.996592 -0.0795765   
     length 2.08176   
     axis 0 0 0   XYZ
    dof rx ry rz
    limits (-20.0 45.0)
           (-30.0 30.0)
           (-30.0 30.0)
  end
  begin
     id 12 
     name upperback
     direction -0.00563773 0.999651 -0.0258155   
     length 2.08898   
     axis 0 0 0   XYZ
    dof rx ry rz
    limits (-20.0 45.0)
           (-30.0 30.0)
           (-30.0 30.0)
  end
  begin
     id 13 
     name thorax
     direction 0.0032706 0.999923 0.0119599   
     length 2.0968   
     axis 0 0 0   XYZ
    dof rx ry rz
    limits (-20.0 45.0)
           (-30.0 30.0)
           (-30.0 30.0)
  end
  begin
     id 14 
     name lowerneck
     direction -0.0285886 0.99568 0.0883427   
     length 1.81272   
     axis 0 0 0   XYZ
    dof rx ry rz
    limits (-20.0 45.0)
           (-30.0 30.0)
           (-30.0 30.0)
  end
  begin
     id 15 
     name upperneck
     direction 0.0807535 0.97985 -0.18268   
     length 1.82518   
     axis 0 0 0   XYZ
    dof rx ry rz
    limits (-20.0 45.0)
           (-30.0 30.0)
           (-30.0 30.0)
  end
  begin
     id 16
     name head
     direction 0.0236605 0.997053 -0.0729767  
     length 1.84443  
     axis 0 0 0   XYZ
    dof rx ry rz
    limits (-20.0 45.0)
           (-30.0 30.0)
           (-30.0 30.0)
  end
  begin
     id 17 
     name lclavicle
     direction 0.918986 0.39378 -0.0200683  
     length 3.27822  
     axis 0 0 0   XYZ
    dof ry rz
    limits (-20.0 10.0)
           (0.0 20.0)
  end
  begin
     id 18 
     name lhumerus
     direction 1 -4.4897e-011 2.09544e-027   
     length 5.5568   
     axis 180 -30 -90   XYZ
    dof rx ry rz
    limits (-60.0 90.0)
           (-90.0 90.0)
           (-90.0 90.0)
  end
  begin
     id 19
     name lradius
     direction 1 -4.48957e-011 -1.27696e-026   
     length 3.63979   
     axis 180 -30 -90   XYZ
    dof rx
    limits (-10.0 170.0)
  end
  begin
     id 20
     name lwrist
     direction 1 -4.49001e-011 -1.49001e-026   
     length 1.8199   
     axis 9.0955e-015 90 90   XYZ
    dof ry
    limits (-180.0 0.0)
 end
  begin
     id 21 
     name lhand
     direction 1 -4.48709e-011 -2.9758e-026   
     length 0.569419   
     axis 1.90115e-014 90 90   XYZ
    dof rx rz
    limits (-90.0 90.0)
           (-45.0 45.0)
  end
  begin
     id 22 
     name lfingers
     direction 1 -4.49175e-011 -5.96505e-026   
     length 0.45908   
     axis 3.80223e-014 90 90   XYZ
    dof rx
    limits (0.0 90.0)
  end
  begin
     id 23
     name lthumb
     direction 0.707107 -6.34864e-011 0.707107   
     length 0.65915   
     axis -90 45 -3.84942e-014   XYZ
    dof rx rz
    limits (-45.0 45.0)
           (-45.0 45.0)
  end
  begin
     id 24 
     name rclavicle
     direction -0.911913 0.396426 -0.106115   
     length 3.46301  
     axis 0 0 0   XYZ 
    dof ry rz
    limits (-10.0 20.0)
           (-20.0 0.0)
  end
  begin
     id 25 
     name rhumerus
     direction -1 -4.48965e-011 7.78516e-028  
     length 5.34339   
     axis 180 30 90   XYZ
    dof rx ry rz
    limits (-90.0 60.0)
           (-90.0 90.0)
           (-90.0 90.0)
  end
  begin
     id 26 
     name rradius
     direction -1 -4.48948e-011 -5.79823e-027   
     length 3.65101   
     axis 180 30 90   XYZ
    dof rx
    limits (-10.0 170.0)
  end
  begin
     id 27 
     name rwrist
     direction -1 -4.48995e-011 -1.48996e-026   
     length 1.8255   
     axis 9.0955e-015 -90 -90   XYZ
    dof ry
    limits (-180.0 0.0)
  end
  begin
     id 28
     name rhand
     direction -1 -4.48957e-011 -2.97937e-026   
     length 0.694249   
     axis 1.90115e-014 -90 -90   XYZ
    dof rx rz
    limits (-90.0 90.0)
           (-45.0 45.0)
  end
  begin
     id 29
     name rfingers
     direction -1 -4.4898e-011 -5.95943e-026   
     length 0.559721   
     axis 3.80223e-014 -90 -90   XYZ
    dof rx
    limits (0.0 90.0)
  end
  begin
     id 30
     name rthumb
     direction -0.707107 -6.34969e-011 0.707107   
     length 0.803651   
     axis -90 -45 3.84942e-014   XYZ
    dof rx rz
    limits (-45.0 45.0)
           (-45.0 45.0)
  end
:hierarchy
  begin
    root lhipjoint rhipjoint lowerback
    lhipjoint lfemur
    lfemur ltibia
    ltibia lfoot
    lfoot ltoes
    rhipjoint rfemur
    rfemur rtibia
    rtibia rfoot
    rfoot rtoes
    lowerback upperback
    upperback thorax
    thorax lowerneck lclavicle rclavicle
    lowerneck upperneck
    upperneck head
    lclavicle lhumerus
    lhumerus lradius
    lradius lwrist
    lwrist lhand lthumb
    lhand lfingers
    rclavicle rhumerus
    rhumerus rradius
    rradius rwrist
    rwrist rhand rthumb
    rhand rfingers
  end

#!OML:ASF H:\Terrain\Walking\May29\JustinRory\rory.ASF
:FULLY-SPECIFIED
:DEGREES
392
root 10.7692 18.4612 -12.9858 0.500647 -4.08212 1.23629
lowerback -1.35149 -0.121202 -9.06179
upperback 0.353021 0.0529331 -5.6832
thorax 1.12658 -0.018709 -0.808621
lowerneck -11.8608 -6.93009 -8.66142
upperneck 22.9596 -9.39493 6.18929
head 9.95658 -4.48082 2.42669
rclavicle 4.12478e-015 1.90833e-014
rhumerus -20.7484 5.56891 -57.3066
rradius 119.964
rwrist -11.054
rhand -20.106 43.6748
rfingers 7.12502
rthumb 6.23752 13.7866
lclavicle 4.12478e-015 1.90833e-014
lhumerus -24.5142 -27.6616 91.5965
lradius 111.569
lwrist 18.8391
lhand -22.4142 16.497
lfingers 7.12502
lthumb 4.0088 46.439
rfemur -0.687684 8.46682 11.3621
rtibia 2.10353
rfoot -0.148014 -8.11358
rtoes -0.818965
lfemur 1.21302 -6.35029 -18.7802
ltibia 11.3377
lfoot -13.0586 8.63543
ltoes -6.50505
393
root 10.7696 18.4588 -12.9716 0.524882 -4.16729 1.3922
lowerback -1.47459 -0.201095 -9.20757
upperback 0.21208 -0.0469833 -5.82075
thorax 1.05463 -0.0641218 -0.874106
lowerneck -11.1528 -6.81194 -8.52356
upperneck 22.4488 -9.33138 6.37471
head 9.63671 -4.44139 2.49989
rclavicle 5.46658e-015 9.54166e-015
rhumerus -20.4716 3.53295 -55.5832
rradius 119.537
rwrist -10.9651
rhand -19.2599 44.5357
rfingers 7.12502
rthumb 7.05429 14.6733
lclavicle 5.46658e-015 9.54166e-015
lhumerus -27.8087 -27.1412 92.823
lradius 112.705
lwrist 17.926
lhand -22.3613 16.7384
lfingers 7.12502
lthumb 4.05986 46.6795
rfemur -1.18854 8.54846 11.2128
rtibia 3.04633
rfoot -0.667224 -8.15939
rtoes -1.63937
lfemur 1.34508 -6.24473 -18.9619
ltibia 11.1471
lfoot -13.0797 8.68312
ltoes -6.53761
394
root 10.7684 18.4581 -12.9693 0.674906 -4.38868 1.28378
lowerback -1.5971 -0.160592 -9.03816
upperback 0.0262829 0.00149713 -5.87198
thorax 0.927291 -0.0317629 -1.01846
lowerneck -10.8872 -6.85566 -8.49259
upperneck 22.4016 -9.42477 6.39572
head 9.57723 -4.48786 2.49792
rclavicle -1.81857e-014 -3.18055e-015
rhumerus -20.3018 1.39186 -53.4964
rradius 119.094
rwrist -10.9666
rhand -19.4669 45.2299
rfingers 7.12502
rthumb 6.85442 15.3609
lclavicle -1.81857e-014 -3.18055e-015
lhumerus -28.6374 -26.973 92.6317
lradius 112.132
lwrist 18.5503
lhand -21.0289 16.6747
lfingers 7.12502
lthumb 5.3464 46.5872
rfemur -1.63006 8.75051 11.343
rtibia 3.48791
rfoot -0.746438 -8.18994
rtoes -2.26022
lfemur 1.2783 -6.09881 -18.8309
ltibia 11.0597
lfoot -13.0745 8.87589
ltoes -7.13232
395
root 10.7671 18.46 -12.9765 0.856502 -4.64815 1.18781
lowerback -1.64423 0.0548068 -8.83112
upperback 0.0434623 0.291274 -5.83901
thorax 0.958287 0.111917 -1.09059
lowerneck -11.2355 -7.13481 -8.90515
upperneck 22.4393 -9.73415 6.51443
head 9.71305 -4.64336 2.55247
rclavicle 1.31695e-015 2.38542e-014
rhumerus -20.0163 -1.20671 -51.0527
rradius 118.457
rwrist -11.2173
rhand -20.2626 44.1555
rfingers 7.12502
rthumb 6.08625 14.2629
lclavicle 1.31695e-015 2.38542e-014
lhumerus -29.1157 -27.4158 92.4343
lradius 111.806
lwrist 19.6878
lhand -20.2345 16.5485
lfingers 7.12502
lthumb 6.11346 46.4403
rfemur -2.01233 8.98595 11.4713
rtibia 3.76471
rfoot -0.716976 -8.23052
rtoes -2.4244
lfemur 1.09869 -6.0736 -18.7184
ltibia 11.0458
lfoot -13.0075 9.14034
ltoes -7.73767
396
root 10.7618 18.464 -12.9831 0.969071 -4.73011 1.0647
lowerback -1.57187 0.102188 -8.71721
upperback 0.0955934 0.347318 -5.82031
thorax 0.96964 0.13906 -1.13241
lowerneck -11.6254 -7.28926 -8.9425
upperneck 22.3929 -9.8971 6.47448
head 9.78507 -4.71568 2.5089
rclavicle -1.19519e-014 1.43125e-014
rhumerus -19.5591 -3.54873 -48.9995
rradius 117.612
rwrist -11.7192
rhand -19.7257 42.5676
rfingers 7.12502
rthumb 6.60462 12.6906
lclavicle -1.19519e-014 1.43125e-014
lhumerus -30.1079 -27.4959 91.957
lradius 112.103
lwrist 20.6865
lhand -19.8537 16.6691
lfingers 7.12502
lthumb 6.48102 46.5499
rfemur -2.31882 9.0597 11.6673
rtibia 4.17181
rfoot -0.815045 -8.26875
rtoes -2.35917
lfemur 1.00027 -5.94363 -18.5232
ltibia 10.946
lfoot -12.815 9.10082
ltoes -8.19696
397
root 10.7513 18.4647 -12.9877 1.03762 -4.28859 1.29444
lowerback -1.47611 -0.129102 -9.10181
upperback 0.150608 0.0406572 -5.85548
thorax 0.986763 -0.0166232 -0.965698
lowerneck -11.9732 -7.33441 -8.89201
upperneck 22.3278 -9.92891 6.43789
head 9.82576 -4.72124 2.47181
rclavicle 1.98785e-016 -5.08889e-014
rhumerus -18.9175 -5.47889 -47.0832
rradius 116.677
rwrist -12.4636
rhand -19.3647 41.9769
rfingers 7.12502
rthumb 6.95314 12.1111
lclavicle 1.98785e-016 -5.08889e-014
lhumerus -28.1736 -27.3155 91.0934
lradius 109.46
lwrist 21.3134
lhand -19.9107 16.6713
lfingers 7.12502
lthumb 6.42601 46.5539
rfemur -2.33806 8.60699 11.4944
rtibia 4.37467
rfoot -0.924112 -8.30351
rtoes -2.41739
lfemur 0.897115 -5.45441 -18.6021
ltibia 10.8084
lfoot -12.5261 8.19768
ltoes -8.5071
398
root 10.7589 18.4629 -12.9618 0.880353 -4.37129 1.44495
lowerback -1.65048 -0.0801697 -9.12714
upperback 0.283628 0.144277 -5.87645
thorax 1.21871 0.0250816 -0.972118
lowerneck -11.9638 -7.46043 -9.25949
upperneck 22.1351 -10.0834 6.71536
head 9.80633 -4.79477 2.60603
rclavicle 1.98785e-015 1.90833e-014
rhumerus -18.5251 -7.17914 -45.0228
rradius 115.688
rwrist -13.1734
rhand -20.1927 41.6621
rfingers 7.12502
rthumb 6.15381 11.7715
lclavicle 1.98785e-015 1.90833e-014
lhumerus -28.0181 -27.5767 90.9511
lradius 108.234
lwrist 21.5051
lhand -20.0253 16.6827
lfingers 7.12502
lthumb 6.31544 46.5685
rfemur -2.02441 8.6994 11.304
rtibia 4.22907
rfoot -1.12579 -8.23468
rtoes -2.57954
lfemur 1.25249 -5.65534 -18.8816
ltibia 10.7058
lfoot -12.7641 8.41141
ltoes -7.96441
399
root 10.7736 18.4623 -12.931 0.757646 -4.9198 1.30048
lowerback -1.91025 0.211836 -8.70121
upperback 0.301773 0.559284 -5.86793
thorax 1.36653 0.229489 -1.18461
lowerneck -11.4885 -7.64943 -9.73744
upperneck 21.9061 -10.3463 7.00493
head 9.70512 -4.93934 2.76246
rclavicle -1.07344e-014 2.70347e-014
rhumerus -18.4916 -8.64559 -43.0418
rradius 114.738
rwrist -13.9813
rhand -21.0629 41.603
rfingers 7.12502
rthumb 5.31364 11.6896
lclavicle -1.07344e-014 2.70347e-014
lhumerus -28.7918 -28.0593 91.2127
lradius 107.671
lwrist 21.4814
lhand -19.6556 16.8731
lfingers 7.12502
lthumb 6.67231 46.748
rfemur -1.69785 9.25157 11.3425
rtibia 3.63343
rfoot -0.935183 -8.19491
rtoes -1.13117
lfemur 1.53875 -6.29761 -18.9811
ltibia 10.8424
lfoot -13.3306 9.51226
ltoes -7.49658
400
root 10.7824 18.4591 -12.9164 0.705109 -5.24922 1.22918
lowerback -2.00226 0.323273 -8.44432
upperback 0.293811 0.712995 -5.93972
thorax 1.40714 0.307036 -1.39524
lowerneck -11.1674 -7.72054 -9.7567
upperneck 21.6627 -10.4626 7.03311
head 9.57285 -5.00222 2.77016
rclavicle 9.24349e-015 1.27222e-014
rhumerus -18.3302 -9.80593 -41.6432
rradius 113.986
rwrist -14.8528
rhand -21.598 41.6189
rfingers 7.12502
rthumb 4.79697 11.6932
lclavicle 9.24349e-015 1.27222e-014
lhumerus -29.4506 -28.2146 91.1826
lradius 107.071
lwrist 21.181
lhand -19.1734 17.2461
lfingers 7.12502
lthumb 7.13779 47.1058
rfemur -1.06365 9.57069 11.3082
rtibia 2.32704
rfoot -0.178783 -8.15033
rtoes -0.775425
lfemur 1.548 -6.78589 -19.0627
ltibia 11.1334
lfoot -13.7714 10.2367
ltoes -6.94748
401
root 10.7655 18.4634 -12.9594 0.887792 -5.07566 0.597312
lowerback -1.50785 0.122833 -8.05762
upperback 0.0813679 0.352566 -5.81668
thorax 0.921834 0.146391 -1.49073
lowerneck -10.8714 -7.59843 -9.45023
upperneck 21.4416 -10.3521 6.97232
head 9.40721 -4.94281 2.72605
rclavicle 4.64659e-015 4.92986e-014
rhumerus -18.0577 -10.3658 -40.8164
rradius 113.444
rwrist -15.2499
rhand -21.8116 40.6445
rfingers 7.12502
rthumb 4.59074 10.7142
lclavicle 4.64659e-015 4.92986e-014
lhumerus -30.0443 -28.2135 90.6978
lradius 106.582
lwrist 21.1185
lhand -18.9396 17.7321
lfingers 7.12502
lthumb 7.36343 47.5839
rfemur -0.115894 9.37658 12.0153
rtibia 1.47101e-014
rfoot 1.0423 -7.91364
rtoes -2.08552
lfemur 0.87723 -6.44715 -18.1307
ltibia 11.6915
lfoot -13.606 9.72542
ltoes -6.58522
402
root 10.7534 18.4646 -12.9647 0.888192 -4.40436 0.325386
lowerback -1.30463 -0.192987 -7.90634
upperback -0.0825055 -0.110263 -5.73348
thorax 0.652262 -0.0736929 -1.49629
lowerneck -10.084 -7.45239 -9.52852
upperneck 21.2346 -10.1952 6.99851
head 9.17952 -4.89651 2.79646
rclavicle -1.72477e-014 -3.02153e-014
rhumerus -18.0222 -10.55 -39.8532
rradius 113.12
rwrist -15.4722
rhand -21.3408 38.7305
rfingers 7.12502
rthumb 5.04528 8.8106
lclavicle -1.72477e-014 -3.02153e-014
lhumerus -31.2296 -28.4246 91.0204
lradius 106.323
lwrist 20.7316
lhand -18.6902 17.9797
lfingers 7.12502
lthumb 7.60419 47.823
rfemur 0.121141 8.71851 12.4194
rtibia 6.75868e-015
rfoot 0.816573 -7.84845
rtoes -3.03361
lfemur 0.704412 -5.8191 -17.6036
ltibia 11.8508
lfoot -13.2496 8.51451
ltoes -6.92274
403
root 10.7434 18.4643 -12.9873 1.00808 -4.43736 -0.075924
lowerback -1.11809 -0.221409 -7.56999
upperback -0.148277 -0.182054 -5.60184
thorax 0.480585 -0.103525 -1.54483
lowerneck -10.0307 -7.41826 -9.58651
upperneck 21.1022 -10.1185 6.94567
head 9.11726 -4.87192 2.79966
rclavicle -1.71079e-014 -5.40694e-014
rhumerus -17.7236 -10.9692 -38.9395
rradius 112.958
rwrist -15.7189
rhand -21.1417 37.2883
rfingers 7.12502
rthumb 5.23753 7.37304
lclavicle -1.71079e-014 -5.40694e-014
lhumerus -31.7027 -28.958 91.3775
lradius 105.943
lwrist 20.3974
lhand -18.5631 17.9537
lfingers 7.12502
lthumb 7.72683 47.7925
rfemur -0.0567593 8.74854 12.8893
rtibia -1.59028e-015
rfoot 0.841768 -7.81233
rtoes -2.38262
lfemur 0.541979 -5.56223 -17.0311
ltibia 11.8185
lfoot -13.1457 8.19126
ltoes -6.26933
